<?xml version="1.0" standalone="yes"?>
<svg width="912" height="912">
<path style="fill:#ffffff; stroke:none;" d="M0 0L0 912L912 912L912 0L0 0z"/>
<path style="fill:#8b99ff; stroke:none;" d="M439 277C462.795 269.418 484.86 249.662 507 238C497.231 228.823 481.791 222.185 470 215.769C465.939 213.56 460.709 209.138 456 208.773C451.638 208.436 442.368 213.905 440.028 217.529C437.475 221.48 439 229.467 439 234L439 277z"/>
<path style="fill:#6599ff; stroke:none;" d="M339 384C364.064 397.202 389.018 419.462 416 428L416 387C416 381.468 417.506 373.285 415.397 368.104C413.273 362.889 404.553 359.926 400 357.2C385.055 348.251 368.62 335.259 352 330L352 328C374.205 320.973 395.797 303.01 416 291.421C421.795 288.097 435.596 282.945 438.397 276.671C440.491 271.98 439 264.068 439 259L439 218C428.758 221.241 419.244 228.589 410 233.988C395.073 242.709 379.857 250.951 365 259.799C358.762 263.514 343.726 268.604 340.603 275.379C337.33 282.481 340 296.209 340 304C340 329.015 344.79 359.681 339 384z"/>
<path style="fill:#ad98ff; stroke:none;" d="M508 298C520.218 309.441 543.274 322.242 559 328L559 330L542 339C546.454 357.71 543 380.774 543 400L584 376.861L664 330L664 328C638.787 313.13 613.525 298.191 588 283.861C580.697 279.761 567.551 268.259 559 268.693C554.072 268.943 548.175 274.001 544 276.424C531.933 283.428 519.637 290.3 508 298z"/>
<path style="fill:#4b99ff; stroke:none;" d="M316 288C320.384 306.412 317 329.082 317 348C317 354.099 315.094 364.05 317.603 369.671C320.189 375.463 334.132 381.654 340 383L340 275L316 288z"/>
<path style="fill:#389aff; stroke:none;" d="M279 309L280.603 347.79L291 355.424L317 370L317 289L279 309z"/>
<path style="fill:#1a9aff; stroke:none;" d="M248 328L248 330L280 348L280 310L248 328z"/>
<path style="fill:#8cccff; stroke:none;" d="M247.333 328.667L247.667 329.333L247.333 328.667z"/>
<path style="fill:#acccff; stroke:none;" d="M352.333 328.667L352.667 329.333L352.333 328.667z"/>
<path style="fill:#9998ff; stroke:none;" d="M481 437L527 410.449L542.397 399.815L543 382L543 340C527.385 343.573 510.766 357.442 497 365.603C492.715 368.144 483.673 371.449 481.603 376.213C479.426 381.225 481 389.6 481 395L481 437z"/>
<path style="fill:#7b99ff; stroke:none;" d="M416 367C416 386.531 419.525 409.995 415 429L455 451.137L469 444.684L480.397 436.621L481 418L481 376L456 388.663L444 383.15L416 367z"/>
<path style="fill:#d4d9ff; stroke:none;" d="M243 381L243 443L244 443C244 423.469 240.475 400.005 245 381L243 381z"/>
<path style="fill:#d390ff; stroke:none;" d="M666 381C670.525 400.005 667 423.469 667 443L668 443L668 397L666 381z"/>
<path style="fill:#5966ec; stroke:none;" d="M244 382L244 424L244.603 442.621L258 451.8L297 474L297 432L296.397 413.329L283 404L244 382z"/>
<path style="fill:#b56be8; stroke:none;" d="M591 425C595.525 444.005 592 467.469 592 487L646 455.424L666.397 441.79L667 424L667 382L645 393.579L591 425z"/>
<path style="fill:#6d68ec; stroke:none;" d="M297 413L297 455C297 460.324 295.403 468.75 297.603 473.671C299.827 478.646 309.495 482.111 314 484.799C328.809 493.637 348.052 509.732 365 513L365 471L364.397 453.379L347 441.719L297 413z"/>
<path style="fill:#8c68e9; stroke:none;" d="M365 453C365 472.226 368.454 495.29 364 514C385.199 526.502 406.656 538.597 428 550.85C435.596 555.211 446.194 564.413 455 565.449C463.886 566.495 480.44 552.703 488 548.201C512.536 533.588 537.375 519.454 562 504.989C569.739 500.443 586.293 494.4 590.972 486.671C593.599 482.332 592 473.915 592 469L592 426C580.675 429.269 570.171 437.849 560 443.716C537.241 456.844 514.603 470.209 492 483.603C483.353 488.728 474.669 493.776 466 498.861C462.775 500.753 458.946 504.264 455 504.188C447.228 504.038 435.607 493.964 429 490C408.793 477.876 387.105 461.093 365 453z"/>
<path style="fill:#dfcfff; stroke:none;" d="M243 498L243 560L244 560C244 540.469 240.475 517.005 245 498L243 498z"/>
<path style="fill:#f14cd7; stroke:none;" d="M666 498C670.525 517.005 667 540.469 667 560L668 560L668 514L666 498z"/>
<path style="fill:#973ac6; stroke:none;" d="M244 499L244 542C244 547.052 242.448 555.299 245.028 559.815C249.717 568.022 266.987 574.002 275 578.8C292.588 589.332 310.421 599.454 328 610C338.273 616.163 349.468 624.608 361 628L361 586C361 580.848 362.462 573.004 360.397 568.21C357.112 560.586 338.124 553.342 331 549.281C311.181 537.982 291.732 526.027 272 514.576C263.053 509.383 253.886 502.13 244 499z"/>
<path style="fill:#d324b3; stroke:none;" d="M543 632C554.185 628.71 565.007 620.164 575 614.201C594.595 602.507 614.264 590.879 634 579.424C642.503 574.489 660.73 568.008 665.972 559.621C668.625 555.376 667 546.844 667 542L667 499C656.569 501.392 646.173 509.958 637 515.397C616.72 527.421 596.481 539.605 576 551.281C567.512 556.12 549.126 562.908 544.028 571.329C541.401 575.668 543 584.085 543 589L543 632z"/>
<path style="fill:#a636c1; stroke:none;" d="M361 568C361 587.226 364.454 610.29 360 629L431 669L431 627C431 621.932 432.491 614.02 430.397 609.329C428.01 603.981 417.808 600.483 413 597.6C396.878 587.932 378.919 573.671 361 568z"/>
<path style="fill:#b533bd; stroke:none;" d="M542 571L480 607.799L455 621.339L431 609L431 652C431 656.604 429.312 665.43 432.028 669.366C433.918 672.105 438.194 673.682 441 675.281C445.107 677.621 450.146 682.046 455 682.394C465.519 683.148 483.009 667.981 492 662.85C503.399 656.343 514.684 649.658 526 643.011C530.769 640.21 537.773 637.661 541.397 633.39C544.426 629.82 543 622.371 543 618C543 604.747 547.107 583.169 542 571z"/>
<path style="fill:#d17ff7; stroke:none;" d="M454.667 622.333L455.333 622.667L454.667 622.333z"/>
</svg>
